<?xml version="1.0" encoding="UTF-8" standalone="no"?>
<!DOCTYPE svg PUBLIC "-//W3C//DTD SVG 20010904//EN"
              "http://www.w3.org/TR/2001/REC-SVG-20010904/DTD/svg10.dtd">

<svg xmlns="http://www.w3.org/2000/svg"
     width="12.875in" height="12.2222in"
     viewBox="0 0 927 880">
  <path id="Selection"
        fill="#f44336" stroke="black" stroke-width="1"
        d="M 41.00,329.00
           C 45.66,331.64 46.86,335.11 50.21,339.00
             50.21,339.00 69.65,360.83 69.65,360.83
             69.65,360.83 80.83,373.00 80.83,373.00
             80.83,373.00 112.84,409.00 112.84,409.00
             112.84,409.00 136.09,434.97 136.09,434.97
             143.21,441.32 155.15,435.71 164.00,434.97
             166.90,434.89 172.20,435.67 173.94,432.69
             174.59,431.25 174.00,424.16 173.94,422.00
             173.94,422.00 173.94,401.00 173.94,401.00
             173.94,401.00 176.92,376.00 176.92,376.00
             176.92,376.00 178.79,365.42 178.79,365.42
             178.05,361.41 173.13,359.57 170.39,357.20
             168.58,355.64 163.18,347.34 161.90,345.00
             155.67,333.61 156.14,318.61 156.00,306.00
             156.00,306.00 155.00,291.00 155.00,291.00
             155.00,291.00 155.00,247.00 155.00,247.00
             155.00,247.00 156.00,232.00 156.00,232.00
             156.00,232.00 156.00,217.00 156.00,217.00
             156.00,217.00 157.00,203.00 157.00,203.00
             157.13,191.15 160.00,152.58 162.50,142.00
             166.72,124.15 180.86,99.57 194.32,87.23
             197.34,84.47 211.34,74.66 215.00,72.64
             215.00,72.64 223.00,69.37 223.00,69.37
             227.13,67.16 229.21,65.34 234.00,63.46
             234.00,63.46 259.00,55.67 259.00,55.67
             271.44,51.68 306.01,46.02 319.00,46.00
             319.00,46.00 331.00,46.00 331.00,46.00
             331.00,46.00 342.00,45.34 342.00,45.34
             342.00,45.34 349.00,45.98 349.00,45.98
             349.00,45.98 362.00,45.98 362.00,45.98
             362.00,45.98 392.00,48.00 392.00,48.00
             388.34,54.37 376.29,60.51 370.00,64.81
             362.64,69.86 355.08,74.68 347.00,78.53
             347.00,78.53 338.00,82.18 338.00,82.18
             338.00,82.18 296.00,103.00 296.00,103.00
             296.00,103.00 296.00,105.00 296.00,105.00
             296.00,105.00 315.00,113.58 315.00,113.58
             315.00,113.58 336.00,120.00 336.00,120.00
             336.00,120.00 317.42,142.00 317.42,142.00
             317.42,142.00 286.50,182.96 286.50,182.96
             286.50,182.96 281.06,190.09 281.06,190.09
             274.07,200.53 267.07,211.80 261.37,223.00
             258.37,228.90 255.41,238.01 251.63,243.00
             251.63,243.00 228.65,270.00 228.65,270.00
             228.65,270.00 216.36,289.00 216.36,289.00
             216.36,289.00 207.04,304.00 207.04,304.00
             207.04,304.00 202.41,314.00 202.41,314.00
             193.73,332.22 190.52,339.01 185.99,359.00
             184.11,367.30 181.87,375.52 181.58,384.09
             181.24,393.93 183.97,397.33 187.00,406.00
             194.26,392.87 194.16,373.14 198.72,358.00
             207.59,328.56 221.36,301.09 240.51,277.00
             263.74,247.77 292.53,222.80 325.00,204.33
             325.00,204.33 341.00,196.64 341.00,196.64
             341.00,196.64 352.00,191.04 352.00,191.04
             352.00,191.04 382.00,180.48 382.00,180.48
             382.00,180.48 396.00,175.60 396.00,175.60
             396.00,175.60 417.00,171.55 417.00,171.55
             440.66,166.81 464.84,164.72 489.00,165.00
             489.00,165.00 499.00,165.96 499.00,165.96
             499.00,165.96 510.00,165.96 510.00,165.96
             527.32,166.21 563.02,173.98 580.00,179.20
             580.00,179.20 592.00,184.20 592.00,184.20
             592.00,184.20 611.00,190.75 611.00,190.75
             611.00,190.75 646.00,208.92 646.00,208.92
             646.00,208.92 656.00,216.38 656.00,216.38
             656.00,216.38 663.83,221.06 663.83,221.06
             663.83,221.06 680.00,232.00 680.00,232.00
             667.86,201.66 644.09,171.84 624.11,146.00
             624.11,146.00 603.00,121.00 603.00,121.00
             603.00,121.00 624.00,113.13 624.00,113.13
             631.08,110.09 635.03,106.44 643.00,106.00
             638.59,101.09 621.68,94.02 615.00,90.52
             615.00,90.52 604.00,84.32 604.00,84.32
             604.00,84.32 593.00,79.37 593.00,79.37
             579.95,72.59 556.34,58.75 546.00,49.00
             546.00,49.00 565.00,46.93 565.00,46.93
             565.00,46.93 619.00,46.00 619.00,46.00
             628.06,46.11 639.91,48.17 649.00,49.58
             658.72,51.09 668.63,52.25 678.00,55.43
             678.00,55.43 703.00,63.09 703.00,63.09
             712.83,66.63 735.11,79.40 742.72,86.37
             756.75,99.24 768.90,118.66 774.09,137.00
             778.00,150.79 778.82,164.87 780.17,179.00
             780.17,179.00 781.96,191.00 781.96,191.00
             781.96,191.00 781.96,201.00 781.96,201.00
             781.96,201.00 783.00,215.00 783.00,215.00
             783.00,215.00 784.00,232.00 784.00,232.00
             784.00,232.00 784.00,301.00 784.00,301.00
             784.00,301.00 783.09,313.00 783.09,313.00
             782.44,322.53 783.10,331.05 778.63,340.00
             776.33,344.59 769.46,354.76 766.25,359.00
             764.90,360.78 761.06,364.97 760.41,366.57
             759.55,368.65 760.69,372.72 761.08,375.00
             761.68,378.56 764.08,394.14 763.64,396.82
             763.35,398.57 762.90,398.72 762.00,400.00
             762.00,400.00 763.46,401.54 763.46,401.54
             763.46,401.54 764.00,422.00 764.00,422.00
             764.00,422.00 764.77,432.42 764.77,432.42
             764.77,432.42 773.00,435.08 773.00,435.08
             773.00,435.08 793.00,437.83 793.00,437.83
             793.00,437.83 798.83,436.98 798.83,436.98
             798.83,436.98 817.01,417.00 817.01,417.00
             817.01,417.00 836.83,395.00 836.83,395.00
             836.83,395.00 861.17,367.00 861.17,367.00
             861.17,367.00 875.17,351.78 875.17,351.78
             875.17,351.78 879.00,351.00 879.00,351.00
             879.00,351.00 878.00,348.00 878.00,348.00
             878.00,348.00 896.00,327.00 896.00,327.00
             896.00,352.84 895.30,373.40 890.39,399.00
             886.45,419.54 877.64,446.07 870.66,466.00
             870.66,466.00 861.51,490.00 861.51,490.00
             861.51,490.00 857.18,498.00 857.18,498.00
             855.76,501.05 852.09,510.31 849.59,511.98
             848.10,512.96 842.98,513.48 841.00,513.72
             841.00,513.72 820.00,516.02 820.00,516.02
             820.00,516.02 759.00,523.87 759.00,523.87
             754.66,524.47 735.76,526.49 733.21,528.02
             730.66,529.54 728.79,533.52 727.11,536.00
             724.94,539.20 717.32,547.33 716.62,549.96
             715.71,553.40 719.59,555.40 722.00,556.95
             722.00,556.95 742.00,568.14 742.00,568.14
             742.00,568.14 778.00,587.13 778.00,587.13
             781.53,589.13 788.99,592.04 791.02,595.21
             794.11,600.04 792.01,609.22 792.00,615.00
             791.98,629.34 790.28,641.89 788.28,656.00
             788.28,656.00 786.54,670.00 786.54,670.00
             781.44,698.26 773.16,723.71 759.46,749.00
             754.06,758.97 742.48,780.79 734.00,787.00
             728.98,767.71 728.25,753.54 726.91,734.00
             726.91,734.00 725.00,712.00 725.00,712.00
             725.00,712.00 725.00,690.00 725.00,690.00
             725.06,685.35 728.17,671.42 726.09,668.41
             724.67,666.36 720.34,664.90 718.00,664.05
             718.00,664.05 697.00,657.86 697.00,657.86
             697.00,657.86 647.00,640.55 647.00,640.55
             647.00,640.55 624.00,631.00 624.00,631.00
             624.00,631.00 637.74,660.00 637.74,660.00
             637.74,660.00 650.47,688.00 650.47,688.00
             650.47,688.00 661.00,710.00 661.00,710.00
             661.00,710.00 670.25,729.00 670.25,729.00
             671.40,731.31 673.79,735.32 673.19,737.91
             672.59,740.50 665.24,746.78 663.00,748.70
             663.00,748.70 635.00,772.28 635.00,772.28
             620.86,784.40 589.07,807.21 573.00,817.19
             573.00,817.19 558.00,825.47 558.00,825.47
             558.00,825.47 549.00,831.39 549.00,831.39
             539.96,836.89 518.57,848.42 509.00,852.33
             509.00,852.33 498.00,856.00 498.00,856.00
             498.00,856.00 515.25,831.00 515.25,831.00
             515.25,831.00 544.41,790.00 544.41,790.00
             544.41,790.00 558.48,770.00 558.48,770.00
             558.48,770.00 574.31,749.00 574.31,749.00
             576.52,746.26 580.30,742.85 579.79,739.00
             579.36,735.69 574.87,730.87 572.90,728.00
             572.90,728.00 552.02,700.42 552.02,700.42
             552.02,700.42 530.47,673.00 530.47,673.00
             528.22,669.98 522.68,661.61 519.71,660.06
             517.12,658.70 506.54,661.25 503.00,661.72
             503.00,661.72 465.00,664.00 465.00,664.00
             465.00,664.00 452.83,664.69 452.83,664.69
             452.83,664.69 425.00,662.93 425.00,662.93
             425.00,662.93 407.44,660.21 407.44,660.21
             403.94,660.89 394.72,672.87 391.95,676.00
             391.95,676.00 373.32,697.00 373.32,697.00
             373.32,697.00 361.28,712.00 361.28,712.00
             357.43,716.61 349.63,724.45 348.39,730.00
             347.02,736.15 350.11,741.70 352.75,747.00
             352.75,747.00 362.64,768.00 362.64,768.00
             362.64,768.00 371.71,788.00 371.71,788.00
             371.71,788.00 384.02,814.00 384.02,814.00
             388.16,822.72 398.09,842.65 400.00,851.00
             387.00,843.44 375.69,833.16 364.00,823.81
             364.00,823.81 353.00,815.54 353.00,815.54
             353.00,815.54 308.17,774.93 308.17,774.93
             308.17,774.93 291.58,757.17 291.58,757.17
             291.58,757.17 283.04,749.00 283.04,749.00
             283.04,749.00 269.14,733.17 269.14,733.17
             266.72,730.25 261.90,726.76 261.52,723.00
             261.29,720.65 263.46,716.26 264.42,714.00
             264.42,714.00 271.69,696.00 271.69,696.00
             271.69,696.00 296.00,637.00 296.00,637.00
             296.00,637.00 265.00,649.08 265.00,649.08
             265.00,649.08 231.00,660.00 231.00,660.00
             226.67,661.42 212.31,664.39 210.75,668.22
             209.21,671.33 210.68,677.59 210.75,681.00
             210.75,681.00 212.00,707.00 212.00,707.00
             212.00,707.00 211.00,721.00 211.00,721.00
             211.00,721.00 207.16,760.00 207.16,760.00
             206.42,766.92 204.23,781.75 200.00,787.00
             184.67,764.21 181.94,759.81 170.22,735.00
             165.93,725.92 164.39,724.29 160.86,714.00
             160.86,714.00 154.58,689.00 154.58,689.00
             154.58,689.00 149.46,666.00 149.46,666.00
             145.18,642.24 144.00,618.10 144.00,594.00
             144.00,594.00 166.00,582.59 166.00,582.59
             166.00,582.59 193.00,568.83 193.00,568.83
             193.00,568.83 223.00,554.00 223.00,554.00
             218.45,545.49 216.60,543.24 210.97,535.83
             209.05,533.30 206.66,529.56 203.91,528.01
             200.51,526.08 180.23,524.47 175.00,523.82
             175.00,523.82 168.00,522.32 168.00,522.32
             168.00,522.32 128.00,517.04 128.00,517.04
             128.00,517.04 98.00,514.42 98.00,514.42
             94.75,513.98 89.93,513.89 87.21,512.07
             83.32,509.46 81.32,502.20 79.54,498.00
             79.54,498.00 72.87,485.00 72.87,485.00
             72.87,485.00 66.94,468.00 66.94,468.00
             53.54,432.26 49.56,418.84 43.87,381.00
             43.87,381.00 42.17,372.00 42.17,372.00
             42.17,372.00 41.00,329.00 41.00,329.00 Z
           M 450.00,188.14
           C 450.00,188.14 429.00,190.29 429.00,190.29
             429.00,190.29 376.00,202.36 376.00,202.36
             364.91,205.97 354.50,210.73 344.00,215.75
             344.00,215.75 326.00,223.95 326.00,223.95
             316.48,229.37 306.67,235.53 298.00,242.24
             298.00,242.24 288.91,250.41 288.91,250.41
             288.91,250.41 280.00,257.17 280.00,257.17
             267.19,268.59 250.54,287.82 240.90,302.00
             240.90,302.00 233.54,315.00 233.54,315.00
             233.54,315.00 229.04,322.00 229.04,322.00
             225.29,329.04 221.00,341.28 218.31,349.00
             212.51,365.61 207.03,385.30 207.00,403.00
             207.00,403.00 207.00,418.00 207.00,418.00
             207.02,433.02 210.39,447.67 214.58,462.00
             214.58,462.00 220.92,482.00 220.92,482.00
             233.67,514.43 259.41,547.59 286.00,569.81
             286.00,569.81 295.00,576.45 295.00,576.45
             301.56,581.63 307.90,586.82 315.00,591.29
             327.45,599.13 349.12,609.12 363.00,614.73
             388.14,624.91 405.03,629.28 432.00,632.16
             432.00,632.16 449.00,634.00 449.00,634.00
             449.00,634.00 503.00,632.83 503.00,632.83
             503.00,632.83 519.00,630.42 519.00,630.42
             519.00,630.42 540.00,626.96 540.00,626.96
             540.00,626.96 550.00,623.72 550.00,623.72
             573.52,616.64 596.70,606.95 618.00,594.67
             635.28,584.70 650.92,572.02 665.17,558.15
             665.17,558.15 673.91,550.00 673.91,550.00
             673.91,550.00 682.09,540.00 682.09,540.00
             698.23,522.35 712.11,497.69 719.83,475.00
             725.38,458.69 731.79,437.29 732.00,420.00
             732.00,420.00 732.00,401.00 732.00,401.00
             731.97,378.73 724.96,355.37 716.42,335.00
             713.04,326.93 709.63,318.61 705.28,311.00
             705.28,311.00 692.02,292.00 692.02,292.00
             692.02,292.00 685.67,283.00 685.67,283.00
             685.67,283.00 665.34,260.92 665.34,260.92
             665.34,260.92 656.00,253.56 656.00,253.56
             656.00,253.56 638.00,238.63 638.00,238.63
             638.00,238.63 630.00,233.77 630.00,233.77
             615.81,224.88 606.29,219.90 591.00,213.14
             580.69,208.58 575.20,205.59 564.00,202.03
             564.00,202.03 539.00,195.77 539.00,195.77
             524.00,192.24 509.35,189.97 494.00,188.91
             494.00,188.91 482.00,188.14 482.00,188.14
             482.00,188.14 450.00,188.14 450.00,188.14 Z
           M 646.00,341.00
           C 646.00,341.00 653.80,359.00 653.80,359.00
             663.67,383.68 664.30,393.81 664.00,420.00
             663.87,431.07 660.80,441.58 657.33,452.00
             654.20,461.41 649.07,473.63 643.82,482.00
             641.11,486.32 636.78,491.06 633.42,495.00
             633.42,495.00 622.70,507.42 622.70,507.42
             611.94,518.26 591.92,532.02 578.00,538.51
             578.00,538.51 566.00,542.86 566.00,542.86
             566.00,542.86 541.00,552.08 541.00,552.08
             541.00,552.08 532.00,553.66 532.00,553.66
             491.36,562.18 447.42,562.91 407.00,552.27
             407.00,552.27 381.00,542.92 381.00,542.92
             381.00,542.92 364.00,536.19 364.00,536.19
             358.59,533.49 354.01,530.00 349.00,526.71
             342.41,522.39 332.79,515.95 327.09,510.70
             327.09,510.70 312.91,495.00 312.91,495.00
             299.90,479.16 292.81,466.80 287.14,447.00
             283.51,434.32 280.85,421.24 281.00,408.00
             281.15,395.38 284.06,383.08 287.36,371.00
             290.06,361.10 297.92,343.35 303.72,335.00
             313.36,321.13 317.78,314.53 331.00,303.44
             343.79,292.71 360.35,283.59 376.00,277.81
             376.00,277.81 393.00,272.96 393.00,272.96
             411.23,267.55 434.98,262.03 454.00,262.00
             454.00,262.00 480.00,262.00 480.00,262.00
             494.99,262.02 516.38,265.24 531.00,268.89
             531.00,268.89 545.00,273.08 545.00,273.08
             557.08,276.35 574.83,280.63 585.00,288.00
             578.43,287.13 572.71,285.56 566.00,286.09
             557.25,286.79 541.36,294.16 534.00,299.00
             521.07,307.51 509.99,320.44 504.42,335.00
             498.91,349.45 496.21,365.55 498.43,381.00
             500.84,397.78 508.28,416.27 520.37,428.54
             527.48,435.74 536.04,440.33 545.00,444.59
             554.63,449.17 565.16,452.52 576.00,451.91
             576.00,451.91 594.00,449.22 594.00,449.22
             598.82,447.80 605.60,444.36 610.00,441.85
             631.16,429.80 645.58,410.22 649.41,386.00
             649.95,382.56 651.09,374.19 650.91,371.00
             650.91,371.00 646.00,341.00 646.00,341.00 Z
           M 374.00,286.29
           C 349.97,289.96 326.58,303.46 314.34,325.00
             295.24,358.60 299.25,405.48 328.29,432.38
             333.99,437.66 342.92,442.30 350.00,445.54
             357.98,449.20 367.16,451.78 376.00,451.99
             387.50,452.25 398.65,449.67 409.00,444.75
             409.00,444.75 419.00,439.88 419.00,439.88
             436.94,428.88 448.05,412.24 452.88,392.00
             454.44,385.46 455.92,379.81 456.00,373.00
             456.20,355.30 452.15,337.08 442.45,322.00
             428.77,300.73 399.65,283.89 374.00,286.29 Z
           M 324.00,347.00
           C 323.24,345.71 322.76,345.62 322.80,343.82
             322.90,339.52 331.55,326.52 334.47,323.01
             347.05,307.90 369.67,299.75 389.00,303.47
             392.87,304.21 397.40,306.09 401.00,307.73
             414.98,314.11 424.48,324.45 431.25,338.00
             436.65,348.80 439.98,363.99 438.27,376.00
             436.26,390.08 433.27,401.39 424.40,412.96
             414.97,425.26 394.76,435.86 379.00,434.68
             371.17,434.09 363.37,433.69 356.00,430.69
             349.06,427.86 346.64,426.08 341.00,421.27
             326.71,409.08 322.44,397.89 319.00,380.00
             317.53,372.33 317.01,358.86 321.00,352.00
             321.00,352.00 321.00,347.00 321.00,347.00
             321.00,347.00 324.00,347.00 324.00,347.00 Z
           M 564.00,303.51
           C 603.22,297.36 632.25,330.88 633.90,368.00
             634.04,371.27 633.47,372.96 633.17,376.00
             631.48,392.92 628.32,403.46 616.50,416.25
             613.30,419.70 610.85,422.57 607.00,425.47
             602.55,428.83 590.60,432.97 585.00,434.18
             573.36,436.71 565.01,435.22 554.00,431.06
             550.79,429.85 548.06,429.19 545.00,427.47
             524.69,416.10 513.26,392.75 513.00,370.00
             512.71,343.68 526.44,318.47 551.00,307.51
             554.31,306.04 560.36,304.43 564.00,303.51 Z
           M 401.00,340.00
           C 397.21,336.21 393.13,331.44 388.00,329.61
             372.56,324.10 358.29,334.70 352.95,349.00
             349.19,359.05 350.43,373.78 355.87,382.99
             357.65,385.98 360.49,389.43 363.17,391.65
             378.62,404.46 396.56,395.24 404.29,379.00
             405.67,376.11 407.12,373.18 407.67,370.00
             408.42,365.75 407.74,362.14 407.00,357.95
             410.31,358.87 411.65,359.05 415.00,357.95
             417.50,357.02 419.50,355.85 421.20,353.79
             425.43,348.67 426.24,340.57 422.30,335.05
             418.79,330.14 409.41,327.71 404.79,332.43
             402.74,334.53 401.80,337.27 401.00,340.00 Z
           M 595.00,339.00
           C 590.02,334.68 586.87,330.17 580.00,328.53
             564.96,324.95 552.06,336.37 547.60,350.00
             546.06,354.69 545.95,359.13 546.00,364.00
             546.15,377.31 551.96,390.31 565.00,395.38
             570.83,397.65 573.98,398.06 580.00,396.28
             583.21,395.33 586.23,394.19 588.96,392.20
             597.38,386.08 602.82,375.34 603.51,365.00
             603.51,365.00 603.00,357.00 603.00,357.00
             618.07,360.48 618.95,340.66 615.11,335.29
             608.76,326.41 597.35,327.96 595.00,339.00 Z
           M 642.00,334.00
           C 642.00,334.00 643.00,334.00 643.00,334.00
             643.00,334.00 642.00,335.00 642.00,335.00
             642.00,335.00 642.00,334.00 642.00,334.00 Z
           M 324.00,344.00
           C 324.00,344.00 323.00,344.00 323.00,344.00
             323.00,344.00 324.00,345.00 324.00,345.00
             324.00,345.00 324.00,344.00 324.00,344.00 Z
           M 572.04,405.45
           C 565.72,408.15 562.78,416.69 565.35,423.00
             567.20,427.52 570.49,431.76 575.98,430.31
             587.10,427.37 586.16,404.04 572.04,405.45 Z
           M 753.00,405.00
           C 750.29,408.68 751.24,410.74 750.71,415.00
             750.71,415.00 747.92,433.00 747.92,433.00
             747.34,440.00 740.56,470.60 738.08,477.00
             738.08,477.00 725.73,506.00 725.73,506.00
             725.73,506.00 719.46,516.00 719.46,516.00
             715.39,523.25 711.48,530.23 706.58,536.99
             694.01,554.32 674.73,574.06 657.83,587.23
             657.83,587.23 638.00,601.03 638.00,601.03
             638.00,601.03 613.00,617.69 613.00,617.69
             603.18,623.05 592.43,627.11 582.00,631.06
             582.00,631.06 562.00,638.97 562.00,638.97
             562.00,638.97 549.00,642.04 549.00,642.04
             526.76,647.36 528.11,647.39 505.00,650.15
             505.00,650.15 486.00,652.00 486.00,652.00
             486.00,652.00 458.00,652.99 458.00,652.99
             458.00,652.99 438.00,651.04 438.00,651.04
             438.00,651.04 428.00,651.04 428.00,651.04
             428.00,651.04 410.00,650.00 410.00,650.00
             404.69,649.93 400.35,647.81 396.00,651.00
             403.43,654.60 411.92,654.90 420.00,656.00
             438.40,658.52 454.49,659.03 473.00,659.00
             481.35,658.99 480.86,658.22 488.00,657.29
             488.00,657.29 499.00,656.70 499.00,656.70
             499.00,656.70 530.00,651.00 530.00,651.00
             558.14,645.50 575.71,639.38 602.00,628.33
             602.00,628.33 617.00,622.37 617.00,622.37
             617.00,622.37 635.00,612.34 635.00,612.34
             635.00,612.34 642.00,608.79 642.00,608.79
             642.00,608.79 650.00,603.10 650.00,603.10
             650.00,603.10 668.00,591.38 668.00,591.38
             668.00,591.38 679.41,581.04 679.41,581.04
             679.41,581.04 689.97,571.91 689.97,571.91
             699.70,562.37 708.04,551.84 716.23,541.00
             723.67,531.16 726.60,525.56 732.31,515.00
             744.90,491.71 751.70,474.14 756.42,448.00
             758.99,433.82 761.56,417.82 753.00,405.00 Z
           M 374.02,406.60
           C 363.62,412.33 362.45,428.41 377.00,428.98
             379.65,429.08 383.47,429.23 385.57,427.40
             387.91,425.37 388.06,421.87 387.96,419.00
             387.65,410.30 383.12,404.74 374.02,406.60 Z
           M 373.00,417.00
           C 373.00,417.00 372.00,424.00 372.00,424.00
             372.00,424.00 373.00,417.00 373.00,417.00 Z
           M 619.00,597.00
           C 619.00,597.00 618.00,597.00 618.00,597.00
             618.00,597.00 619.00,598.00 619.00,598.00
             619.00,598.00 619.00,597.00 619.00,597.00 Z
           M 508.00,850.00
           C 508.00,850.00 507.00,850.00 507.00,850.00
             507.00,850.00 508.00,851.00 508.00,851.00
             508.00,851.00 508.00,850.00 508.00,850.00 Z
           M 507.00,851.00
           C 507.00,851.00 506.00,851.00 506.00,851.00
             506.00,851.00 507.00,852.00 507.00,852.00
             507.00,852.00 507.00,851.00 507.00,851.00 Z" />
</svg>
